<svg width="32" height="32" viewBox="0 0 32 32" fill="none" xmlns="http://www.w3.org/2000/svg">
<g clip-path="url(#clip0)">
<path d="M28.9901 10.1295C29.2722 10.1295 29.5008 9.90084 29.5008 9.61881C29.5008 9.33678 29.2722 9.10815 28.9901 9.10815C28.7081 9.10815 28.4795 9.33678 28.4795 9.61881C28.4795 9.90084 28.7081 10.1295 28.9901 10.1295Z" fill="#FFC726"/>
<path d="M28.9901 7.24056C29.2722 7.24056 29.5008 7.01193 29.5008 6.7299C29.5008 6.44787 29.2722 6.21924 28.9901 6.21924C28.7081 6.21924 28.4795 6.44787 28.4795 6.7299C28.4795 7.01193 28.7081 7.24056 28.9901 7.24056Z" fill="#FFC726"/>
<path d="M30.3901 13.1979C31.4317 11.9932 32 10.472 32 8.86342C32 7.09014 31.3095 5.42308 30.0555 4.16924C28.8017 2.9154 27.1346 2.22485 25.3614 2.22485C23.7531 2.22485 22.2322 2.79291 21.0277 3.83404L20.891 3.69936C20.6901 3.50143 20.3667 3.50382 20.1688 3.70474C19.9709 3.9056 19.9733 4.22895 20.1742 4.42688L20.3077 4.55843C19.2823 5.75834 18.7229 7.26778 18.7229 8.86335C18.7229 9.06877 18.7326 9.27263 18.7509 9.47471L4.57986 25.313C4.39916 25.5151 4.40767 25.8229 4.59934 26.0147L6.04368 27.459L5.75329 27.7494C4.67219 28.8307 2.91294 28.8306 1.8317 27.7495C0.750533 26.6683 0.750533 24.909 1.8317 23.8278L11.4229 14.2366C12.9023 12.7572 12.9023 10.35 11.4229 8.87057C9.94348 7.39122 7.5363 7.39122 6.05696 8.87057L0.148227 14.7793L0.870367 15.5015L6.7791 9.59278C7.86034 8.51168 9.61959 8.51161 10.7007 9.59278C11.7819 10.6739 11.7819 12.4332 10.7007 13.5144L1.10956 23.1056C-0.369853 24.585 -0.369853 26.9922 1.10956 28.4716C1.84927 29.2113 2.82088 29.5811 3.79249 29.5811C4.76411 29.5811 5.73579 29.2113 6.4755 28.4716L6.76582 28.1812L8.21024 29.6255C8.30965 29.7249 8.44038 29.775 8.57138 29.775C8.69291 29.775 8.81465 29.7319 8.91182 29.6449L22.4949 17.4917C22.4968 17.4899 24.7499 15.474 24.7499 15.474C24.9521 15.4923 25.156 15.502 25.3614 15.502C26.9567 15.502 28.4658 14.9428 29.6657 13.9177L29.7997 14.0525C29.8996 14.1528 30.0306 14.2029 30.1616 14.2029C30.2919 14.2029 30.4223 14.1533 30.5219 14.0541C30.7218 13.8551 30.7225 13.5318 30.5235 13.332L30.3901 13.1979ZM8.59085 28.5617L7.12744 27.0984C7.12648 27.0974 5.66314 25.6341 5.66314 25.6341L16.9633 13.0045C17.4139 13.9198 18.0094 14.7513 18.7415 15.4835C19.4736 16.2155 20.3051 16.811 21.2205 17.2616L8.59085 28.5617ZM22.0496 16.5197C21.0843 16.1031 20.2154 15.5129 19.4636 14.7613C18.7118 14.0094 18.1217 13.1405 17.7051 12.1753L18.9905 10.7387C19.2992 11.793 19.8688 12.7591 20.6673 13.5577C21.4657 14.3561 22.4318 14.9257 23.4861 15.2344L22.0496 16.5197ZM25.3614 14.4807C23.861 14.4806 22.4504 13.8963 21.3895 12.8354C20.3285 11.7744 19.7442 10.3638 19.7442 8.86342C19.7442 7.53836 20.2005 6.28378 21.0378 5.27778L22.1143 6.33845C22.2138 6.43643 22.3432 6.48532 22.4727 6.48532C22.6046 6.48532 22.7365 6.43445 22.8365 6.33307C23.0344 6.13221 23.032 5.80886 22.8311 5.61093L21.7588 4.55441C22.7677 3.70794 24.0288 3.24617 25.3614 3.24617C26.8618 3.24617 28.2725 3.83043 29.3334 4.89145C30.3944 5.95232 30.9787 7.36297 30.9787 8.86342C30.9787 10.1981 30.5153 11.4611 29.6663 12.4708L24.279 7.05882C24.08 6.85878 23.7567 6.8581 23.5568 7.05719C23.3569 7.25614 23.3562 7.57949 23.5552 7.77933L28.9424 13.1912C27.9371 14.0258 26.6844 14.4807 25.3614 14.4807Z" fill="#FFC726"/>
</g>
<defs>
<clipPath id="clip0">
<rect width="32" height="32" fill="white"/>
</clipPath>
</defs>
</svg>
