<svg width="32" height="32" viewBox="0 0 32 32" fill="none" xmlns="http://www.w3.org/2000/svg">
<g clip-path="url(#clip0)">
<path d="M29.8117 27.782C30.1891 27.3152 30.3961 26.7337 30.3984 26.1335V25.0668C30.3984 23.5941 29.2045 22.4001 27.7317 22.4001C26.259 22.4001 25.0651 23.5941 25.0651 25.0668V26.1335C25.0674 26.7337 25.2743 27.3152 25.6517 27.782C24.9895 27.9051 24.3987 28.2749 23.9984 28.8167C23.5981 28.2749 23.0073 27.9051 22.3451 27.782C22.7225 27.3152 22.9294 26.7337 22.9317 26.1335V25.0668C22.9317 23.5941 21.7378 22.4001 20.2651 22.4001C18.7923 22.4001 17.5984 23.5941 17.5984 25.0668V26.1335C17.6007 26.7337 17.8077 27.3152 18.1851 27.782C17.5229 27.9051 16.932 28.2749 16.5317 28.8167C16.1315 28.2749 15.5406 27.9051 14.8784 27.782C15.2558 27.3152 15.4627 26.7337 15.4651 26.1335V25.0668C15.4651 23.5941 14.2711 22.4001 12.7984 22.4001C11.3257 22.4001 10.1317 23.5941 10.1317 25.0668V26.1335C10.1341 26.7337 10.341 27.3152 10.7184 27.782C9.45367 28.0134 8.53414 29.1144 8.53174 30.4001V32.0001H9.59841V30.4001C9.59841 29.5165 10.3147 28.8001 11.1984 28.8001H14.3984C15.2821 28.8001 15.9984 29.5165 15.9984 30.4001V32.0001H17.0651V30.4001C17.0651 29.5165 17.7814 28.8001 18.6651 28.8001H21.8651C22.7487 28.8001 23.4651 29.5165 23.4651 30.4001V32.0001H24.5317V30.4001C24.5317 29.5165 25.2481 28.8001 26.1317 28.8001H29.3317C30.2154 28.8001 30.9317 29.5165 30.9317 30.4001V32.0001H31.9984V30.4001C31.996 29.1144 31.0765 28.0134 29.8117 27.782ZM14.3984 26.1335C14.3984 27.0171 13.6821 27.7335 12.7984 27.7335C11.9147 27.7335 11.1984 27.0171 11.1984 26.1335V25.0668C11.1984 24.1831 11.9147 23.4668 12.7984 23.4668C13.6821 23.4668 14.3984 24.1831 14.3984 25.0668V26.1335ZM21.8651 26.1335C21.8651 27.0171 21.1487 27.7335 20.2651 27.7335C19.3814 27.7335 18.6651 27.0171 18.6651 26.1335V25.0668C18.6651 24.1831 19.3814 23.4668 20.2651 23.4668C21.1487 23.4668 21.8651 24.1831 21.8651 25.0668V26.1335ZM29.3317 26.1335C29.3317 27.0171 28.6154 27.7335 27.7317 27.7335C26.8481 27.7335 26.1317 27.0171 26.1317 26.1335V25.0668C26.1317 24.1831 26.8481 23.4668 27.7317 23.4668C28.6154 23.4668 29.3317 24.1831 29.3317 25.0668V26.1335Z" fill="#FFC726"/>
<path d="M12.9951 10.7038C12.9329 10.6793 12.8668 10.6667 12.8 10.6666H10.6667C10.4424 10.6665 10.2421 10.8068 10.1653 11.0175L9.6 12.5722L9.58133 12.5215C9.17427 11.4097 8.1174 10.6693 6.93333 10.6666H6.91947C7.2724 10.2077 7.46473 9.64552 7.46667 9.06659V7.99992C7.46667 6.52719 6.27273 5.33325 4.8 5.33325C3.32727 5.33325 2.13333 6.52719 2.13333 7.99992V9.06659C2.13527 9.64552 2.3276 10.2077 2.68053 10.6666H2.66667C1.19467 10.6683 0.00173333 11.8613 0 13.3333V19.7333C0 20.0278 0.2388 20.2666 0.533333 20.2666H2.13333V25.4399L1.15627 26.9039C0.9928 27.1489 1.05887 27.4801 1.30393 27.6436C1.3916 27.7021 1.4946 27.7333 1.6 27.7333H8C8.29453 27.7333 8.5334 27.4945 8.5334 27.2C8.5334 27.0946 8.5022 26.9916 8.44373 26.9039L7.46667 25.4399V15.5925L7.60107 15.8591C8.14 16.9363 9.45 17.3726 10.5271 16.8337C11.0045 16.5949 11.3776 16.1893 11.576 15.6938L12.4421 13.529L13.2955 11.3957C13.4036 11.1217 13.2691 10.8119 12.9951 10.7038ZM3.2 7.99992C3.2 7.11625 3.91633 6.39992 4.8 6.39992C5.68367 6.39992 6.4 7.11625 6.4 7.99992V9.06659C6.4 9.95025 5.68367 10.6666 4.8 10.6666C3.91633 10.6666 3.2 9.95025 3.2 9.06659V7.99992ZM2.13333 19.1999H1.06667V18.1333H2.13333V19.1999ZM5.33333 26.6666V20.2666H4.26667V26.6666H2.5968L3.1104 25.8959C3.16867 25.8082 3.1998 25.7053 3.2 25.5999V19.1999H6.4V25.5999C6.4002 25.7053 6.43133 25.8082 6.4896 25.8959L7.0032 26.6666H5.33333ZM10.5856 15.3002C10.3567 15.8713 9.70807 16.1488 9.13693 15.9199C8.88407 15.8185 8.67713 15.6281 8.5552 15.3845L7.41333 13.0949C7.285 12.8297 6.966 12.7189 6.70087 12.8473C6.51487 12.9373 6.39767 13.1267 6.4 13.3333V18.1333H3.2V13.3333C3.2 13.0387 2.9612 12.7999 2.66667 12.7999C2.37213 12.7999 2.13333 13.0387 2.13333 13.3333V17.0666H1.06667V13.3333C1.06667 12.4496 1.783 11.7333 2.66667 11.7333H4.26667V17.0666H5.33333V11.7333H6.93333C7.66907 11.7347 8.32587 12.1948 8.57867 12.8858L9.09867 14.3157C9.19913 14.5925 9.50507 14.7355 9.78193 14.6351C9.93047 14.5812 10.0474 14.4642 10.1013 14.3157L10.2645 13.8666H11.1589L10.5856 15.3002ZM11.5856 12.7999H10.6523L11.04 11.7333H12.0123L11.5856 12.7999Z" fill="#FFC726"/>
<path d="M31.4651 3.2C31.7596 3.2 31.9984 2.9612 31.9984 2.66667V0.533333C31.9984 0.2388 31.7596 0 31.4651 0H9.06507C8.77054 0 8.53174 0.2388 8.53174 0.533333V2.66667C8.53174 2.9612 8.77054 3.2 9.06507 3.2H9.59841V9.6H10.6651V3.2H29.8651V14.9333H12.7984V16H19.7317V18.3573L16.2651 20.3371L16.7941 21.2629L19.7317 19.5856V21.3333H20.7984V19.5856L23.7317 21.2629L24.2608 20.3371L20.7984 18.3573V16H31.9984V14.9333H30.9317V3.2H31.4651ZM9.59841 2.13333V1.06667H30.9317V2.13333H9.59841Z" fill="#FFC726"/>
<path d="M26.2636 5.8827L24.1303 5.34937L23.8711 6.38403L24.87 6.63363L20.822 9.46723L18.4673 7.5835C18.2809 7.43457 18.0182 7.42757 17.8241 7.56643L14.0908 10.2331L14.7106 11.1003L18.1159 8.6683L20.4673 10.5499C20.6524 10.6982 20.9132 10.7065 21.1073 10.5702L25.6007 7.42457V8.53337H26.6673V6.40003C26.6673 6.15543 26.5009 5.94217 26.2636 5.8827Z" fill="#FFC726"/>
</g>
<defs>
<clipPath id="clip0">
<rect width="32" height="32" fill="white"/>
</clipPath>
</defs>
</svg>
