<svg width="32" height="32" viewBox="0 0 32 32" fill="none" xmlns="http://www.w3.org/2000/svg">
<path d="M10.8814 3.19971H6.40137V4.47971H10.8814V3.19971Z" fill="#FFC726"/>
<path d="M15.3614 3.19971H12.1614V4.47971H15.3614V3.19971Z" fill="#FFC726"/>
<path d="M7.68137 5.75977H6.40137V7.03977H7.68137V5.75977Z" fill="#FFC726"/>
<path d="M15.3607 5.75977H8.96069V7.03977H15.3607V5.75977Z" fill="#FFC726"/>
<path d="M13.4414 27.5203H12.1614V28.8003H13.4414V27.5203Z" fill="#FFC726"/>
<path d="M19.8405 27.5203H14.7205V28.8003H19.8405V27.5203Z" fill="#FFC726"/>
<path d="M29.44 17.9201V14.4552L26.3469 11.3621C26.6822 10.8558 26.88 10.251 26.88 9.60015C26.88 7.83567 25.4445 6.40015 23.68 6.40015C21.9155 6.40015 20.48 7.83567 20.48 9.60015C20.48 11.3646 21.9155 12.8001 23.68 12.8001C24.3309 12.8001 24.9357 12.6024 25.4419 12.267L28.16 14.9851V17.9201H0V25.6001H3.11488L3.84512 31.4395L5.11488 31.2808L4.40512 25.6001L3.92512 21.7601H28.0749L27.5949 25.6001L26.8851 31.2808L28.1549 31.4395L28.8851 25.6001H32V17.9201H29.44ZM23.68 11.5201C22.6214 11.5201 21.76 10.6587 21.76 9.60015C21.76 8.54159 22.6214 7.68015 23.68 7.68015C24.7386 7.68015 25.6 8.54159 25.6 9.60015C25.6 10.6587 24.7386 11.5201 23.68 11.5201ZM30.72 24.3201H29.0451L29.5251 20.4801H2.47488L2.95488 24.3201H1.28V19.2001H30.72V24.3201Z" fill="#FFC726"/>
<path d="M8.96069 24.3198V31.9998H23.0407V24.3198H8.96069ZM21.7607 30.7198H10.2407V25.5998H21.7607V30.7198Z" fill="#FFC726"/>
<path d="M2.55908 0V14.345L6.66404 10.24H19.1991V0H2.55908ZM17.9191 8.96H6.13412L3.83908 11.255V1.28H17.9191V8.96Z" fill="#FFC726"/>
</svg>
