<svg width="32" height="32" viewBox="0 0 32 32" fill="none" xmlns="http://www.w3.org/2000/svg">
<g clip-path="url(#clip0)">
<path d="M18.7828 0C11.4944 0 5.56544 5.92898 5.56544 13.2173C5.56544 15.538 6.17108 17.7183 7.22576 19.6161L0.204058 26.6384C-0.0680193 26.9105 -0.0680193 27.3501 0.204058 27.6221L4.37795 31.796C4.51348 31.9319 4.69147 31.9998 4.86979 31.9998C5.04778 31.9998 5.22577 31.9319 5.3613 31.796L12.3833 24.7743C14.2818 25.8287 16.4618 26.4346 18.7828 26.4346C19.0246 26.4346 19.2682 26.4278 19.5158 26.4139C19.8537 29.5491 22.5147 31.9998 25.7392 31.9998C29.1917 31.9998 32.0001 29.1907 32.0001 25.739C32.0001 23.7383 31.0531 21.9581 29.5874 20.811C31.1421 18.5991 32.0001 15.934 32.0001 13.2173C32.0001 5.92898 26.0708 0 18.7828 0ZM4.86979 30.3205L1.67925 27.1303L7.97779 20.8321C8.84871 22.0675 9.93328 23.1514 11.168 24.0216L4.86979 30.3205ZM30.6088 25.739C30.6088 28.4244 28.4237 30.6085 25.7392 30.6085C23.0545 30.6085 20.8697 28.4244 20.8697 25.739C20.8697 23.0539 23.0545 20.8695 25.7392 20.8695C28.4237 20.8695 30.6088 23.0539 30.6088 25.739ZM28.4006 20.0807C27.5915 19.6979 26.6913 19.4782 25.7392 19.4782C22.5307 19.4782 19.8823 21.9048 19.5236 25.0175C19.2722 25.0338 19.0253 25.0433 18.7828 25.0433C16.4278 25.0433 14.2373 24.3436 12.3918 23.1527C12.1996 23.0294 12.0138 22.8966 11.8297 22.7624C11.6619 22.6398 11.4931 22.5209 11.3321 22.3902C11.1527 22.2448 10.9849 22.0862 10.8141 21.9302C10.5552 21.6938 10.3083 21.4469 10.0715 21.1881C9.91528 21.0169 9.75598 20.8481 9.60924 20.667C9.47914 20.507 9.35992 20.3382 9.23832 20.1711C9.10347 19.986 8.97031 19.7995 8.84667 19.6069C7.65646 17.7628 6.95674 15.5723 6.95674 13.2173C6.95674 6.69629 12.2617 1.3913 18.7828 1.3913C25.3034 1.3913 30.6088 6.69629 30.6088 13.2173C30.6088 15.6772 29.8224 18.0882 28.4006 20.0807Z" fill="#FFC726"/>
<path d="M18.7841 4.17383C13.7974 4.17383 9.74072 8.23087 9.74072 13.2173C9.74072 13.6014 10.0515 13.9129 10.4364 13.9129C10.8209 13.9129 11.132 13.6014 11.132 13.2173C11.132 8.99819 14.5647 5.56512 18.7841 5.56512C19.1686 5.56512 19.4798 5.25365 19.4798 4.86948C19.4798 4.48565 19.1686 4.17383 18.7841 4.17383Z" fill="#FFC726"/>
</g>
<defs>
<clipPath id="clip0">
<rect width="32" height="32" fill="white"/>
</clipPath>
</defs>
</svg>
