<svg width="30" height="30" viewBox="0 0 30 30" fill="none" xmlns="http://www.w3.org/2000/svg">
<path d="M1.64453 1.64486C1.59934 1.69266 1.5637 1.74867 1.53953 1.80986C1.51314 1.86973 1.49951 1.93443 1.49951 1.99986C1.49951 2.06529 1.51314 2.12999 1.53953 2.18986C1.56248 2.25166 1.59827 2.3079 1.64453 2.35486C1.73932 2.44782 1.86678 2.49989 1.99953 2.49989C2.13229 2.49989 2.25975 2.44782 2.35453 2.35486C2.44749 2.26008 2.49956 2.13262 2.49956 1.99986C2.49956 1.8671 2.44749 1.73964 2.35453 1.64486C2.25784 1.55564 2.1311 1.5061 1.99953 1.5061C1.86797 1.5061 1.74123 1.55564 1.64453 1.64486Z" fill="#FFC726"/>
<path d="M3.30954 1.53979C3.24774 1.56274 3.1915 1.59853 3.14454 1.64479C3.05158 1.73958 2.99951 1.86704 2.99951 1.99979C2.99951 2.13255 3.05158 2.26001 3.14454 2.35479C3.21447 2.42531 3.30382 2.4734 3.4012 2.49293C3.49857 2.51247 3.59956 2.50256 3.69128 2.46448C3.783 2.4264 3.8613 2.36186 3.9162 2.2791C3.9711 2.19634 4.00012 2.09911 3.99954 1.99979C3.9976 1.86743 3.94582 1.74067 3.85454 1.64479C3.78364 1.57637 3.69438 1.53002 3.59763 1.51138C3.50087 1.49274 3.40079 1.50261 3.30954 1.53979Z" fill="#FFC726"/>
<path d="M4.80954 1.53983C4.74835 1.56399 4.69234 1.59963 4.64454 1.64483C4.55158 1.73961 4.49951 1.86707 4.49951 1.99983C4.49951 2.13259 4.55158 2.26005 4.64454 2.35483C4.69317 2.39896 4.74897 2.43447 4.80954 2.45983C4.86965 2.48545 4.9342 2.49904 4.99954 2.49983C5.06538 2.5005 5.1307 2.48802 5.19167 2.46313C5.25263 2.43824 5.30802 2.40144 5.35458 2.35488C5.40114 2.30831 5.43795 2.25293 5.46284 2.19196C5.48773 2.131 5.5002 2.06568 5.49954 1.99983C5.4976 1.86747 5.44582 1.7407 5.35454 1.64483C5.28298 1.57749 5.19376 1.53186 5.09727 1.51327C5.00078 1.49468 4.90099 1.50389 4.80954 1.53983Z" fill="#FFC726"/>
<path d="M13.5 8.5H6.5V9.5H13.5V8.5Z" fill="#FFC726"/>
<path d="M13.5 11.5H6.5V12.5H13.5V11.5Z" fill="#FFC726"/>
<path d="M16 14.5H6.5V15.5H16V14.5Z" fill="#FFC726"/>
<path d="M13 17.5H6.5V18.5H13V17.5Z" fill="#FFC726"/>
<path d="M10.5 20.5H6.5V21.5H10.5V20.5Z" fill="#FFC726"/>
<path d="M9.5 23.5H6.5V24.5H9.5V23.5Z" fill="#FFC726"/>
<path d="M28.0855 6C27.834 5.99927 27.5848 6.04849 27.3525 6.14479C27.1202 6.24109 26.9092 6.38256 26.732 6.561L25 8.293V1.5C25 1.10218 24.842 0.720644 24.5607 0.43934C24.2794 0.158035 23.8978 0 23.5 0H1.5C1.10218 0 0.720644 0.158035 0.43934 0.43934C0.158035 0.720644 0 1.10218 0 1.5V28.5C0 28.8978 0.158035 29.2794 0.43934 29.5607C0.720644 29.842 1.10218 30 1.5 30H23.5C23.8978 30 24.2794 29.842 24.5607 29.5607C24.842 29.2794 25 28.8978 25 28.5V13.707L29.439 9.268C29.7069 9.00035 29.8894 8.65924 29.9633 8.28785C30.0373 7.91646 29.9994 7.53148 29.8545 7.18161C29.7096 6.83175 29.4642 6.53273 29.1493 6.32239C28.8344 6.11206 28.4642 5.99986 28.0855 6ZM1 1.5C1 1.36739 1.05268 1.24021 1.14645 1.14645C1.24021 1.05268 1.36739 1 1.5 1H23.5C23.6326 1 23.7598 1.05268 23.8536 1.14645C23.9473 1.24021 24 1.36739 24 1.5V3H1V1.5ZM24 28.5C24 28.6326 23.9473 28.7598 23.8536 28.8536C23.7598 28.9473 23.6326 29 23.5 29H1.5C1.36739 29 1.24021 28.9473 1.14645 28.8536C1.05268 28.7598 1 28.6326 1 28.5V4H24V9.293L21 12.293V10.793L15.707 5.5H4V27.5H21V17.707L24 14.707V28.5ZM12.063 21.23L10.7095 25.2905L14.77 23.937L16.207 22.5L20 18.707V26.5H5V6.5H15V11.5H20V13.293L13.5 19.793L12.063 21.23ZM13.5 21.207L14.793 22.5L14.23 23.063L12.2905 23.7095L12.937 21.77L13.5 21.207ZM16 7.207L19.293 10.5H16V7.207ZM15.5 21.793L14.207 20.5L26 8.707L27.293 10L15.5 21.793ZM28.732 8.561L28 9.293L26.707 8L27.439 7.268C27.5232 7.18008 27.6241 7.10987 27.7359 7.06147C27.8476 7.01307 27.9678 6.98747 28.0896 6.98616C28.2113 6.98486 28.3321 7.00787 28.4448 7.05386C28.5575 7.09984 28.6599 7.16787 28.746 7.25396C28.8321 7.34005 28.9002 7.44246 28.9461 7.55519C28.9921 7.66792 29.0151 7.78869 29.0138 7.91043C29.0125 8.03217 28.9869 8.15243 28.9385 8.26414C28.8901 8.37585 28.8199 8.47678 28.732 8.561Z" fill="#FFC726"/>
</svg>
