<svg width="32" height="32" viewBox="0 0 32 32" fill="none" xmlns="http://www.w3.org/2000/svg">
<path d="M27.6755 14.7811C28.6126 14.1226 29.2331 13.0272 29.2331 11.7925C29.2331 9.77276 27.5995 8.1392 25.5797 8.1392C23.56 8.1392 21.9264 9.77276 21.9264 11.7925C21.9264 13.0272 22.5406 14.1226 23.484 14.7811C22.6799 15.0597 21.9454 15.4902 21.3249 16.0474C20.4701 15.3193 19.4634 14.7621 18.3617 14.4328C19.6977 13.6224 20.5968 12.1471 20.5968 10.4692C20.5968 7.91126 18.5263 5.84082 15.9683 5.84082C13.4104 5.84082 11.3399 7.91759 11.3399 10.4692C11.3399 12.1471 12.2327 13.6224 13.575 14.4328C12.486 14.7621 11.4919 15.3129 10.6435 16.0284C10.023 15.4839 9.30115 15.0597 8.5097 14.7874C9.44678 14.1289 10.0673 13.0335 10.0673 11.7989C10.0673 9.77909 8.43372 8.14553 6.41393 8.14553C4.39414 8.14553 2.76059 9.77909 2.76059 11.7989C2.76059 13.0335 3.37475 14.1289 4.31816 14.7874C1.80451 15.6548 0 18.0419 0 20.8468V21.2646C0 21.2773 0.0126632 21.29 0.0253265 21.29H7.7689C7.72458 21.6382 7.69925 21.9991 7.69925 22.36V22.7906C7.69925 24.6521 9.20617 26.159 11.0677 26.159H20.8817C22.7432 26.159 24.2501 24.6521 24.2501 22.7906V22.36C24.2501 21.9991 24.2248 21.6382 24.1805 21.29H31.9747C31.9873 21.29 32 21.2773 32 21.2646V20.8468C31.9873 18.0355 30.1892 15.6485 27.6755 14.7811ZM22.9395 11.7862C22.9395 10.3299 24.1235 9.14593 25.5797 9.14593C27.036 9.14593 28.22 10.3299 28.22 11.7862C28.22 13.2235 27.0613 14.3948 25.6304 14.4265C25.6114 14.4265 25.5987 14.4265 25.5797 14.4265C25.5607 14.4265 25.5481 14.4265 25.5291 14.4265C24.0918 14.4012 22.9395 13.2298 22.9395 11.7862ZM12.3403 10.4692C12.3403 8.47477 13.9612 6.85388 15.9557 6.85388C17.9501 6.85388 19.571 8.47477 19.571 10.4692C19.571 12.394 18.0578 13.9706 16.1646 14.0783C16.095 14.0783 16.0253 14.0783 15.9557 14.0783C15.886 14.0783 15.8164 14.0783 15.7467 14.0783C13.8536 13.9706 12.3403 12.394 12.3403 10.4692ZM3.75465 11.7862C3.75465 10.3299 4.93866 9.14593 6.39494 9.14593C7.85121 9.14593 9.03522 10.3299 9.03522 11.7862C9.03522 13.2235 7.87653 14.3948 6.44559 14.4265C6.42659 14.4265 6.41393 14.4265 6.39494 14.4265C6.37594 14.4265 6.36328 14.4265 6.34428 14.4265C4.91334 14.4012 3.75465 13.2298 3.75465 11.7862ZM7.94618 20.2706H1.02572C1.31065 17.5733 3.59003 15.4585 6.35695 15.4396C6.36961 15.4396 6.38227 15.4396 6.39494 15.4396C6.4076 15.4396 6.42026 15.4396 6.43292 15.4396C7.7499 15.4459 8.95291 15.9334 9.88366 16.7249C8.9719 17.7126 8.29442 18.9283 7.94618 20.2706ZM23.2244 22.7906C23.2244 24.0885 22.167 25.1459 20.869 25.1459H11.055C9.75702 25.1459 8.69964 24.0885 8.69964 22.7906V22.36C8.69964 18.4281 11.8401 15.2116 15.7467 15.0976C15.8164 15.104 15.8924 15.104 15.962 15.104C16.0317 15.104 16.1076 15.104 16.1773 15.0976C20.0839 15.2116 23.2244 18.4281 23.2244 22.36V22.7906ZM23.9778 20.2706C23.6296 18.9346 22.9648 17.7379 22.0594 16.7502C22.9964 15.9398 24.2121 15.4522 25.5417 15.4396C25.5544 15.4396 25.5671 15.4396 25.5797 15.4396C25.5924 15.4396 25.6051 15.4396 25.6177 15.4396C28.3846 15.4585 30.664 17.5733 30.949 20.2706H23.9778Z" fill="#FFC726"/>
</svg>
