<svg width="32" height="30" viewBox="0 0 32 30" fill="none" xmlns="http://www.w3.org/2000/svg">
<path d="M13.5748 0.464375C13.4579 0.348125 13.2973 0.28125 13.1323 0.28125C12.9679 0.28125 12.8067 0.348125 12.6904 0.464375C12.5742 0.580625 12.5073 0.741875 12.5073 0.90625C12.5073 1.07063 12.5742 1.23188 12.6904 1.34812C12.8067 1.46438 12.9679 1.53125 13.1323 1.53125C13.2973 1.53125 13.4579 1.46438 13.5748 1.34812C13.6911 1.23188 13.7573 1.07063 13.7573 0.90625C13.7573 0.741875 13.6911 0.580625 13.5748 0.464375Z" fill="#FFC726"/>
<path d="M22.0598 10.6766L21.542 8.05084C21.3309 6.97985 20.8107 6.00629 20.0376 5.23548L19.1522 4.35255V0.906248C19.1522 0.561061 18.8724 0.28125 18.5272 0.28125C18.182 0.28125 17.9022 0.561061 17.9022 0.906248V4.61192C17.9022 4.77798 17.9683 4.93723 18.0859 5.05448L19.155 6.12054C19.7513 6.71529 20.1527 7.46635 20.3157 8.29259L20.8335 10.9184C20.8537 11.0209 20.8323 11.1248 20.7732 11.211C20.7142 11.2972 20.6249 11.3547 20.522 11.3728C20.323 11.4083 20.1287 11.2815 20.0805 11.0848L19.8129 9.99359C19.7186 9.60909 19.365 9.36428 18.9719 9.41196C18.5789 9.45946 18.2937 9.78127 18.2937 10.1771V15.2609C18.2937 15.4616 18.1304 15.6248 17.9298 15.6248C17.7454 15.6248 17.5929 15.4868 17.5694 15.3088V12.6541C17.5694 12.3089 17.2896 12.0291 16.9444 12.0291C16.9438 12.0291 16.9432 12.0291 16.9427 12.0291C16.9421 12.0291 16.9415 12.0291 16.9409 12.0291C16.5957 12.0291 16.3159 12.3089 16.3159 12.6541V15.2609C16.3159 15.295 16.3174 15.3288 16.3194 15.3623V16.1949C16.3194 16.3955 16.1562 16.5587 15.9555 16.5587C15.7549 16.5587 15.5917 16.3955 15.5917 16.1949V15.3619C15.5937 15.3284 15.5952 15.2949 15.5952 15.2609V12.6541C15.5952 12.3089 15.3154 12.0291 14.9702 12.0291C14.9696 12.0291 14.969 12.0291 14.9684 12.0291C14.9679 12.0291 14.9672 12.0291 14.9667 12.0291C14.6215 12.0291 14.3417 12.3089 14.3417 12.6541V15.3086C14.3182 15.4868 14.1657 15.6249 13.9812 15.6249C13.7806 15.6249 13.6174 15.4616 13.6174 15.261V14.3286C13.6194 14.2952 13.6209 14.2616 13.6209 14.2277V12.6541C13.6209 12.3089 13.3411 12.0291 12.9959 12.0291C12.9953 12.0291 12.9947 12.0291 12.9941 12.0291C12.9936 12.0291 12.9929 12.0291 12.9924 12.0291C12.6472 12.0291 12.3674 12.3089 12.3674 12.6541V14.2753C12.3439 14.4534 12.1914 14.5916 12.0069 14.5916C11.8063 14.5916 11.6431 14.4283 11.6431 14.2277V12.0383V10.555V8.73222C11.6431 7.6026 12.0836 6.54116 12.8835 5.74354L13.5745 5.05454C13.6921 4.93729 13.7582 4.77804 13.7582 4.61198V3.13505C13.7582 2.78987 13.4784 2.51005 13.1332 2.51005C12.788 2.51005 12.5082 2.78987 12.5082 3.13505V4.35255L12.0009 4.85836C10.9641 5.89223 10.3931 7.26797 10.3931 8.73215V10.5549V12.0382V14.2276C10.3931 15.1175 11.1171 15.8415 12.0069 15.8415C12.1616 15.8415 12.3111 15.8192 12.4529 15.7783C12.6691 16.4151 13.2722 16.8747 13.9812 16.8747C14.1481 16.8747 14.3091 16.8493 14.4606 16.8021C14.701 17.3918 15.2803 17.8087 15.9554 17.8087C16.6305 17.8087 17.21 17.3919 17.4505 16.8021C17.602 16.8494 17.763 16.8748 17.9298 16.8748C18.8197 16.8748 19.5437 16.1508 19.5437 15.2609V12.3495C19.8838 12.578 20.3085 12.6797 20.7392 12.6039C21.1755 12.527 21.5538 12.2832 21.8043 11.9176C22.0548 11.5521 22.1455 11.1114 22.0598 10.6766Z" fill="#FFC726"/>
<path d="M15.5671 23.325C15.4905 23.1923 15.397 23.0735 15.2899 22.9698C15.733 22.4641 15.8293 21.7122 15.4749 21.0983C15.3917 20.9542 15.2894 20.8277 15.173 20.7202C15.3038 20.5522 15.401 20.3582 15.4578 20.1463C15.5694 19.7298 15.5121 19.295 15.2965 18.9216C14.959 18.337 14.3085 18.0438 13.6777 18.1303C13.6422 17.9738 13.5831 17.8218 13.5005 17.6788C13.285 17.3055 12.937 17.0385 12.5206 16.9269C12.1042 16.8153 11.6693 16.8725 11.2959 17.0882L8.77455 18.5438C8.80236 18.1351 8.67824 17.7165 8.39711 17.3815C8.11224 17.042 7.71205 16.8362 7.27023 16.802C6.82867 16.7682 6.40136 16.9097 6.06767 17.2013L4.05255 18.9627C3.23061 19.6811 2.64761 20.6183 2.36655 21.6732L2.04467 22.8815L0.31261 23.8815C0.013672 24.054 -0.0887655 24.4363 0.0838595 24.7352C0.19961 24.9357 0.409672 25.0478 0.625672 25.0478C0.731672 25.0478 0.839172 25.0208 0.937609 24.964L2.89436 23.8342C3.03817 23.7512 3.14305 23.6143 3.1858 23.4539L3.57448 21.995C3.7913 21.1812 4.24111 20.458 4.87523 19.9038L6.89036 18.1424C6.96905 18.0736 7.06955 18.0402 7.17392 18.0483C7.27811 18.0563 7.37242 18.1048 7.43961 18.1849C7.5698 18.34 7.55717 18.5712 7.41098 18.7113L6.59973 19.4887C6.31386 19.7625 6.27886 20.1911 6.51648 20.5078C6.75417 20.8245 7.17548 20.9107 7.5183 20.7126L11.921 18.1707C12.0051 18.1221 12.1032 18.1092 12.1971 18.1343C12.291 18.1595 12.3695 18.2197 12.4181 18.3039C12.4667 18.3881 12.4796 18.4862 12.4545 18.58C12.4325 18.6622 12.3824 18.7313 12.314 18.7802L10.0255 20.1014C9.72655 20.274 9.62411 20.6562 9.79673 20.9552C9.79705 20.9557 9.79736 20.9561 9.79767 20.9566C9.79799 20.9571 9.79817 20.9577 9.79848 20.9582C9.97105 21.2571 10.3532 21.3595 10.6522 21.1869L12.9099 19.8835C12.9393 19.8665 12.9678 19.8484 12.9959 19.8298L13.717 19.4135C13.8907 19.3132 14.1137 19.3729 14.2141 19.5467C14.3144 19.7205 14.2547 19.9435 14.0809 20.0438L13.3595 20.4603C13.3295 20.4753 13.2997 20.4908 13.2704 20.5078L11.0127 21.8112C10.7137 21.9838 10.6113 22.366 10.7839 22.665C10.8074 22.7054 10.836 22.7435 10.8677 22.7778C10.9876 22.9083 11.1552 22.9806 11.3275 22.9806C11.4335 22.9806 11.541 22.9536 11.6394 22.8968L13.9382 21.5695C14.1042 21.5007 14.3001 21.5637 14.3924 21.7235C14.4927 21.8972 14.433 22.1202 14.2592 22.2206L13.4521 22.6866C13.422 22.7016 13.392 22.7173 13.3626 22.7342L11.9998 23.521C11.7009 23.6936 11.5984 24.0758 11.771 24.3748C11.8823 24.5666 12.0925 24.6904 12.3146 24.6904C12.4206 24.6904 12.5281 24.6634 12.6265 24.6066L14.0307 23.7959C14.1044 23.7653 14.1854 23.7594 14.2637 23.7804C14.3576 23.8056 14.436 23.8658 14.4847 23.95C14.585 24.1237 14.5252 24.3467 14.3515 24.4471L12.3484 25.6035L9.59223 27.1948C8.61392 27.7597 7.47442 27.9088 6.38373 27.6149L5.44155 27.361C5.28111 27.3177 5.11023 27.3402 4.96642 27.4232L3.00967 28.553C2.71073 28.7255 2.6083 29.1078 2.78092 29.4067C2.89667 29.6072 3.10673 29.7193 3.32273 29.7193C3.42873 29.7193 3.53623 29.6923 3.63467 29.6355L5.36673 28.6355L6.05842 28.8219C7.47211 29.2028 8.94911 29.0095 10.2172 28.2774L11.7956 27.3661C11.7956 27.3661 11.7957 27.3661 11.7957 27.366L12.9734 26.6861L13.0803 26.6243L14.9764 25.5296C15.7471 25.0847 16.012 24.0957 15.5671 23.325Z" fill="#FFC726"/>
<path d="M31.6874 23.8811L29.9553 22.8811L29.7709 22.1888C29.394 20.774 28.488 19.5916 27.22 18.8595L24.4638 17.2681L22.4608 16.1117C22.0874 15.8961 21.6525 15.8389 21.2362 15.9505C20.8198 16.062 20.4717 16.3291 20.2562 16.7024C20.179 16.8361 20.1237 16.9766 20.0882 17.1195C19.8478 17.0712 19.5978 17.0782 19.3542 17.1436C18.9378 17.2551 18.5897 17.5222 18.3742 17.8955C18.2917 18.0385 18.2326 18.1905 18.1971 18.3469C17.5663 18.2605 16.9158 18.5538 16.5783 19.1383C16.2408 19.7228 16.312 20.4328 16.7024 20.9359C16.5846 21.0449 16.4825 21.1721 16.4 21.315C15.955 22.0857 16.22 23.0747 16.9907 23.5196L19.512 24.9754C19.1442 25.1557 18.8436 25.4726 18.694 25.8835C18.5425 26.2999 18.5643 26.7493 18.7557 27.1491C18.947 27.5488 19.2833 27.8478 19.7027 27.9909L22.2356 28.8554C23.2688 29.2081 24.372 29.2443 25.426 28.9603L26.6333 28.6349L28.3654 29.6349C28.4638 29.6917 28.5713 29.7188 28.6773 29.7187C28.8933 29.7187 29.1034 29.6066 29.2191 29.4061C29.3918 29.1072 29.2893 28.725 28.9904 28.5524L27.0336 27.4226C26.8898 27.3396 26.7189 27.3171 26.5585 27.3605L25.1008 27.7533C24.2877 27.9725 23.4365 27.9445 22.6393 27.6724L20.1064 26.8079C20.0075 26.7741 19.9282 26.7036 19.8831 26.6094C19.838 26.5151 19.8328 26.4091 19.8686 26.311C19.9378 26.1207 20.1444 26.0161 20.3388 26.0726L21.4176 26.3865C21.7978 26.4973 22.1864 26.3132 22.3418 25.949C22.4972 25.5849 22.3612 25.177 22.0183 24.979L17.6157 22.4371C17.4419 22.3368 17.3822 22.1138 17.4825 21.94C17.5311 21.8558 17.6095 21.7956 17.7034 21.7705C17.7818 21.7495 17.8628 21.7553 17.9364 21.7859L20.2355 23.1133C20.3339 23.1701 20.4413 23.1971 20.5474 23.1971C20.7195 23.1971 20.887 23.125 21.0068 22.9946C21.0388 22.9603 21.0675 22.9221 21.091 22.8815C21.2637 22.5825 21.1612 22.2003 20.8623 22.0277L18.6047 20.7243C18.5752 20.7073 18.5452 20.6916 18.515 20.6765L17.794 20.2603C17.6203 20.16 17.5605 19.937 17.6609 19.7632C17.7095 19.679 17.7879 19.6188 17.8818 19.5936C17.9758 19.5685 18.0738 19.5815 18.1579 19.63L18.879 20.0463C18.907 20.065 18.9356 20.083 18.965 20.1L21.2226 21.4035C21.321 21.4603 21.4285 21.4873 21.5345 21.4873C21.7067 21.4873 21.8742 21.4151 21.994 21.2847C22.026 21.2504 22.0545 21.2122 22.0782 21.1716C22.2508 20.8727 22.1483 20.4905 21.8494 20.3179L19.5608 18.9966C19.4925 18.9477 19.4425 18.8786 19.4204 18.7965C19.3953 18.7026 19.4082 18.6045 19.4568 18.5203C19.5054 18.4361 19.5838 18.3759 19.6778 18.3508C19.7716 18.3256 19.8697 18.3385 19.9539 18.3871L20.7613 18.8533C20.7892 18.8718 20.8177 18.8898 20.847 18.9068L22.2098 19.6936C22.3083 19.7505 22.4157 19.7775 22.5218 19.7775C22.6938 19.7775 22.8614 19.7053 22.9812 19.575C23.0132 19.5405 23.0417 19.5024 23.0653 19.4618C23.238 19.1629 23.1355 18.7806 22.8366 18.6081L21.4326 17.7975C21.29 17.6881 21.2467 17.487 21.3388 17.3272C21.3875 17.243 21.4659 17.1828 21.5598 17.1576C21.6538 17.1326 21.7517 17.1454 21.8359 17.194L23.732 18.2888L23.839 18.3505L25.0167 19.0305C25.0167 19.0305 25.0167 19.0305 25.0167 19.0305L26.5951 19.9418C27.5735 20.5067 28.2723 21.4189 28.5631 22.5105L28.8144 23.4533C28.8571 23.6138 28.962 23.7506 29.1058 23.8336L31.0626 24.9634C31.161 25.0202 31.2685 25.0472 31.3745 25.0472C31.5905 25.0472 31.8006 24.9351 31.9163 24.7346C32.0888 24.436 31.9863 24.0537 31.6874 23.8811Z" fill="#FFC726"/>
</svg>
