<svg width="32" height="32" viewBox="0 0 32 32" fill="none" xmlns="http://www.w3.org/2000/svg">
<path d="M29.556 17.5996C29.5497 17.5996 29.5434 17.5997 29.5371 17.5998C28.9291 17.5986 28.3431 17.8272 27.8965 18.2398L22.1184 23.5732C21.8233 23.8473 21.4353 23.9997 21.0325 23.9998H12.9296C12.3405 23.9998 11.8629 23.5223 11.8629 22.9332C11.8629 22.344 12.3405 21.8665 12.9296 21.8665H18.5371C19.7153 21.8665 20.6704 20.9114 20.6704 19.7332C20.6704 18.555 19.7153 17.5998 18.5371 17.5998H9.8352C8.5356 17.5994 7.2622 17.9648 6.16053 18.6542L4.26667 19.8398V19.1998H0V31.9998H4.26667V30.9332H15.5109C15.8639 30.9332 16.2164 30.9062 16.5653 30.8526L20.944 30.179C22.4023 29.9578 23.7511 29.2743 24.792 28.2292L31.2912 21.7289C31.7465 21.2764 32.0017 20.6604 32 20.0185C31.9931 18.6756 30.8988 17.5927 29.556 17.5996ZM3.2 30.9332H1.06667V20.2665H3.2V30.9332ZM30.5365 20.9758L30.5371 20.9748L24.0379 27.475C23.1571 28.3593 22.0158 28.9377 20.7819 29.1252L16.4032 29.7988C16.1079 29.8439 15.8097 29.8666 15.5109 29.8665H4.26667V21.0953L6.7264 19.5582C7.65847 18.9752 8.7358 18.6662 9.8352 18.6665H18.5371C19.1262 18.6665 19.6037 19.144 19.6037 19.7332C19.6037 20.3223 19.1262 20.7998 18.5371 20.7998H12.9296C11.7514 20.7998 10.7963 21.755 10.7963 22.9332C10.7963 24.1114 11.7514 25.0665 12.9296 25.0665H21.0325C21.7031 25.0672 22.3493 24.8146 22.8416 24.3593L28.6203 19.026C28.8825 18.7878 29.2261 18.6595 29.5803 18.6676C30.3269 18.6673 30.9325 19.2724 30.9328 20.019C30.9329 20.3779 30.7903 20.7221 30.5365 20.9758Z" fill="#FFC726"/>
<path d="M23.8933 5.54662C23.7926 5.41235 23.6345 5.33329 23.4667 5.33329H18.4944L16.4955 0.335418C16.3861 0.0619516 16.0757 -0.0711151 15.8022 0.0382849C15.6667 0.0924849 15.5593 0.199885 15.5051 0.335418L13.5056 5.33329H8.53333C8.2388 5.33329 8 5.57209 8 5.86662C8 6.03449 8.07907 6.19255 8.21333 6.29329L12.1637 9.25595L10.1653 14.7493C10.0647 15.0261 10.2075 15.3321 10.4843 15.4328C10.659 15.4963 10.8542 15.4642 10.9995 15.3482L15.9813 11.3621L20.4453 15.3296C20.6656 15.5252 21.0027 15.5052 21.1983 15.2849C21.3178 15.1503 21.3613 14.9646 21.3141 14.7909L19.8101 9.27622L23.7867 6.29329C24.0223 6.11655 24.0701 5.78222 23.8933 5.54662ZM18.88 8.63995C18.705 8.77115 18.6279 8.99588 18.6853 9.20689L19.8133 13.3429L16.3547 10.2682C16.1605 10.0955 15.8702 10.0879 15.6672 10.2501L11.8176 13.3296L13.3019 9.24902C13.3821 9.02808 13.3082 8.78075 13.12 8.63995L10.1333 6.39995H13.8667C14.0849 6.40002 14.2812 6.26715 14.3621 6.06449L16 1.96902L17.6379 6.06449C17.7188 6.26715 17.9151 6.40002 18.1333 6.39995H21.8667L18.88 8.63995Z" fill="#FFC726"/>
<path d="M10.5116 1.22281L9.75732 1.97705L11.8907 4.11042L12.6449 3.35618L10.5116 1.22281Z" fill="#FFC726"/>
<path d="M21.4888 1.22259L19.3555 3.35596L20.1097 4.1102L22.2431 1.97683L21.4888 1.22259Z" fill="#FFC726"/>
<path d="M10.1331 9.6001H6.93311V10.6668H10.1331V9.6001Z" fill="#FFC726"/>
<path d="M25.0662 9.6001H21.8662V10.6668H25.0662V9.6001Z" fill="#FFC726"/>
<path d="M16.5349 12.7998H15.4683V15.9998H16.5349V12.7998Z" fill="#FFC726"/>
</svg>
