<svg width="18" height="18" viewBox="0 0 18 18" fill="none" xmlns="http://www.w3.org/2000/svg">
<path fill-rule="evenodd" clip-rule="evenodd" d="M13.8047 3.11576C13.2077 3.11576 12.7247 3.59876 12.7247 4.19576C12.7247 4.79176 13.2077 5.27576 13.8047 5.27576C14.4007 5.27576 14.8837 4.79176 14.8837 4.19576C14.8837 3.59876 14.4007 3.11576 13.8047 3.11576ZM16.3262 12.6368C16.2862 13.5138 16.1392 13.9908 16.0152 14.3078C15.8522 14.7278 15.6582 15.0278 15.3432 15.3428C15.0272 15.6578 14.7282 15.8528 14.3072 16.0158C13.9912 16.1388 13.5142 16.2858 12.6372 16.3258C11.6872 16.3688 11.4032 16.3788 9.00024 16.3788C6.59724 16.3788 6.31224 16.3688 5.36324 16.3258C4.48524 16.2858 4.00924 16.1388 3.69224 16.0158C3.27124 15.8528 2.97224 15.6578 2.65724 15.3428C2.34224 15.0278 2.14724 14.7278 1.98424 14.3078C1.86024 13.9908 1.71424 13.5138 1.67424 12.6368C1.63124 11.6878 1.62224 11.4038 1.62224 8.99976C1.62224 6.59676 1.63124 6.31176 1.67424 5.36376C1.71424 4.48576 1.86024 4.00976 1.98424 3.69176C2.14724 3.27176 2.34224 2.97176 2.65724 2.65776C2.97224 2.34276 3.27124 2.14776 3.69224 1.98376C4.00924 1.86076 4.48524 1.71376 5.36324 1.67376C6.31224 1.63076 6.59724 1.62176 9.00024 1.62176C11.4032 1.62176 11.6872 1.63076 12.6372 1.67376C13.5142 1.71376 13.9912 1.86076 14.3072 1.98376C14.7282 2.14776 15.0272 2.34276 15.3432 2.65776C15.6582 2.97176 15.8522 3.27176 16.0152 3.69176C16.1392 4.00976 16.2862 4.48576 16.3262 5.36376C16.3692 6.31176 16.3782 6.59676 16.3782 8.99976C16.3782 11.4038 16.3692 11.6878 16.3262 12.6368ZM9.00004 12.0001C7.34304 12.0001 6.00004 10.6571 6.00004 9.00006C6.00004 7.34306 7.34304 6.00006 9.00004 6.00006C10.657 6.00006 12 7.34306 12 9.00006C12 10.6571 10.657 12.0001 9.00004 12.0001ZM9.00004 4.37806C6.44704 4.37806 4.37804 6.44706 4.37804 9.00006C4.37804 11.5521 6.44704 13.6221 9.00004 13.6221C11.553 13.6221 13.622 11.5521 13.622 9.00006C13.622 6.44706 11.553 4.37806 9.00004 4.37806ZM17.9462 5.28876C17.9022 4.33176 17.7502 3.67776 17.5272 3.10476C17.2982 2.51276 16.9902 2.01076 16.4892 1.51076C15.9892 1.01076 15.4872 0.702756 14.8952 0.472756C14.3232 0.249756 13.6692 0.0977559 12.7112 0.0537559C11.7512 0.0107559 11.4442 -0.000244141 9.00024 -0.000244141C6.55524 -0.000244141 6.24924 0.0107559 5.28924 0.0537559C4.33124 0.0977559 3.67724 0.249756 3.10424 0.472756C2.51324 0.702756 2.01124 1.01076 1.51124 1.51076C1.01024 2.01076 0.702244 2.51276 0.472244 3.10476C0.250244 3.67776 0.0972441 4.33176 0.0542441 5.28876C0.0112441 6.24876 0.000244141 6.55576 0.000244141 8.99976C0.000244141 11.4448 0.0112441 11.7508 0.0542441 12.7108C0.0972441 13.6688 0.250244 14.3228 0.472244 14.8958C0.702244 15.4878 1.01024 15.9898 1.51124 16.4898C2.01124 16.9898 2.51324 17.2978 3.10424 17.5278C3.67724 17.7498 4.33124 17.9028 5.28924 17.9458C6.24924 17.9898 6.55524 17.9998 9.00024 17.9998C11.4442 17.9998 11.7512 17.9898 12.7112 17.9458C13.6692 17.9028 14.3232 17.7498 14.8952 17.5278C15.4872 17.2978 15.9892 16.9898 16.4892 16.4898C16.9902 15.9898 17.2982 15.4878 17.5272 14.8958C17.7502 14.3228 17.9022 13.6688 17.9462 12.7108C17.9892 11.7508 18.0002 11.4448 18.0002 8.99976C18.0002 6.55576 17.9892 6.24876 17.9462 5.28876Z" fill="white"/>
</svg>
