<svg width="17" height="17" viewBox="0 0 17 17" fill="none" xmlns="http://www.w3.org/2000/svg">
<path fill-rule="evenodd" clip-rule="evenodd" d="M10.6913 10.062C9.74035 11.181 8.40935 11.864 6.94535 11.982C6.79435 11.995 6.64235 12 6.49335 12C3.65335 12 1.24835 9.781 1.01835 6.946C0.899349 5.482 1.35835 4.058 2.30935 2.939C3.26035 1.82 4.59035 1.137 6.05435 1.019C6.20635 1.006 6.35835 1 6.50735 1C9.34735 1 11.7523 3.22 11.9823 6.055C12.1013 7.519 11.6423 8.942 10.6913 10.062ZM16.6463 15.94L11.4353 10.729C12.5233 9.458 13.1253 7.773 12.9793 5.974C12.7023 2.575 9.85835 -0.000999709 6.50735 2.91049e-07C6.33135 2.91049e-07 6.15235 0.00700029 5.97435 0.0220003C2.39635 0.313 -0.268651 3.449 0.0213486 7.027C0.297349 10.426 3.14135 13 6.49335 13C6.66935 13 6.84735 12.994 7.02635 12.979C8.44735 12.864 9.71935 12.294 10.7243 11.432L15.9393 16.647L16.6463 15.94Z" fill="#1C1819"/>
</svg>
