<svg width="18" height="11" viewBox="0 0 18 11" fill="none" xmlns="http://www.w3.org/2000/svg">
<path fill-rule="evenodd" clip-rule="evenodd" d="M17.587 0.744634C17.712 0.315634 17.587 -0.000366211 16.992 -0.000366211H15.023C14.522 -0.000366211 14.291 0.272634 14.166 0.573634C14.166 0.573634 13.164 3.08463 11.746 4.71663C11.287 5.18863 11.078 5.33863 10.828 5.33863C10.702 5.33863 10.521 5.18863 10.521 4.75963V0.744634C10.521 0.229634 10.376 -0.000366211 9.959 -0.000366211H6.864C6.551 -0.000366211 6.363 0.239634 6.363 0.465634C6.363 0.953634 7.072 1.06663 7.146 2.44063V5.42463C7.146 6.07863 7.031 6.19763 6.78 6.19763C6.113 6.19763 4.489 3.67463 3.526 0.787634C3.337 0.226634 3.148 -0.000366211 2.645 -0.000366211H0.675C0.112 -0.000366211 0 0.272634 0 0.573634C0 1.10963 0.668 3.77163 3.108 7.29263C4.736 9.69663 7.028 10.9996 9.115 10.9996C10.366 10.9996 10.521 10.7106 10.521 10.2116V8.39463C10.521 7.81563 10.64 7.70063 11.036 7.70063C11.328 7.70063 11.829 7.85063 12.997 9.00963C14.333 10.3836 14.553 10.9996 15.304 10.9996H17.273C17.836 10.9996 18.117 10.7106 17.955 10.1396C17.777 9.56963 17.139 8.74363 16.294 7.76463C15.835 7.20663 15.146 6.60563 14.938 6.30463C14.646 5.91863 14.729 5.74663 14.938 5.40363C14.938 5.40363 17.337 1.92563 17.587 0.744634Z" fill="white"/>
</svg>
