<svg width="18" height="13" viewBox="0 0 18 13" fill="none" xmlns="http://www.w3.org/2000/svg">
<path fill-rule="evenodd" clip-rule="evenodd" d="M7.15924 9.24376V3.75676L11.8642 6.49976L7.15924 9.24376ZM17.6242 2.02976C17.4172 1.23076 16.8072 0.601756 16.0332 0.388756C14.6292 -0.000244141 9.00024 -0.000244141 9.00024 -0.000244141C9.00024 -0.000244141 3.37124 -0.000244141 1.96724 0.388756C1.19324 0.601756 0.583244 1.23076 0.376244 2.02976C0.000244141 3.47776 0.000244141 6.49976 0.000244141 6.49976C0.000244141 6.49976 0.000244141 9.52176 0.376244 10.9708C0.583244 11.7688 1.19324 12.3988 1.96724 12.6118C3.37124 12.9998 9.00024 12.9998 9.00024 12.9998C9.00024 12.9998 14.6292 12.9998 16.0332 12.6118C16.8072 12.3988 17.4172 11.7688 17.6242 10.9708C18.0002 9.52176 18.0002 6.49976 18.0002 6.49976C18.0002 6.49976 18.0002 3.47776 17.6242 2.02976Z" fill="white"/>
</svg>
